<svg width="512" height="512" viewBox="0 0 512 512" fill="none" xmlns="http://www.w3.org/2000/svg">
<g clip-path="url(#clip0_168_337)">
<path d="M463.855 277.512H467.172C467.172 288.069 476.163 294.296 484 294.296V297.604C474.937 297.604 467.172 304.764 467.172 314.388H463.855C463.855 304.764 455.981 297.604 447.027 297.604V294.296C455.165 294.296 463.855 288.069 463.855 277.512Z" fill="black"/>
<path d="M44.828 277.512H48.1449C48.1449 288.069 57.1363 294.296 64.9729 294.296V297.604C55.9096 297.604 48.1449 304.764 48.1449 314.388H44.828C44.828 304.764 36.9537 297.604 28 297.604V294.296C36.1381 294.296 44.828 288.069 44.828 277.512Z" fill="black"/>
<path d="M163.59 314.743V281.299L126.593 278.011V363.399H163.566C163.566 363.399 186.843 349.363 200.577 310.324V363.549H249.971L237.512 288.083L194.82 284.081L163.59 314.74V314.743Z" fill="black"/>
<path d="M48.3265 326.564C58.1985 326.537 65.5691 324.138 70.2361 319.432C76.9899 312.624 77.3326 303.298 77.3292 303.195V303.048C77.3292 289.891 77.3292 286.148 77.3292 272.991C89.6135 274.064 101.898 275.137 114.182 276.207V303.011C114.192 306.086 113.658 328.943 96.4324 346.307C88.3079 354.499 73.3817 363.935 48.4225 364H40.3254V326.677L48.3265 326.561V326.564Z" fill="black"/>
<path d="M463.629 326.564C453.757 326.537 446.386 324.138 441.719 319.432C434.966 312.624 434.623 303.298 434.626 303.195V303.048C434.626 289.891 434.626 286.148 434.626 272.991C422.342 274.064 410.058 275.137 397.773 276.207C397.773 288.281 397.773 290.936 397.773 303.011C397.763 306.086 398.298 328.943 415.523 346.307C423.648 354.499 438.574 363.935 463.533 364H471.63V326.677L463.629 326.561V326.564Z" fill="black"/>
<path d="M341.82 281.634L274.378 287.868L262.159 363.399H340.135C348.43 363.399 385.39 363.552 385.39 314.374C385.39 277.509 348.43 280.79 341.82 281.631V281.634ZM329.944 338.991L303.21 338.97L305.471 330.508L335.05 324.538L328.889 318.154L308.795 318.178L311.245 309.275L336.105 307.009C342.266 306.572 350.819 306.948 350.819 318.154C350.819 332.822 342.269 338.97 329.944 338.987V338.991Z" fill="black"/>
<path d="M343.328 167.129L262.163 166.887L274.529 242.63C286.707 243.593 327.018 247.189 339.929 248.515C360.756 250.326 385.838 240.637 385.838 215.812C385.838 168.336 360.756 167.129 343.325 167.129H343.328ZM336.108 221.523H311.451L308.305 209.907L333.778 213.396L329.947 199.511H305.3L303.217 191.469H329.951C336.112 191.469 350.826 191.469 350.826 203.909C350.826 221.906 339.802 221.523 336.112 221.523H336.108Z" fill="black"/>
<path d="M109.883 180.948C117.669 173.181 117.669 160.59 109.883 152.824C102.096 145.057 89.471 145.057 81.6842 152.824C73.8974 160.59 73.8974 173.181 81.6842 180.948C89.471 188.714 102.096 188.714 109.883 180.948Z" fill="black"/>
<path d="M114.21 254.113V189.008L77.2126 210.313V257.308L114.21 254.113Z" fill="black"/>
<path d="M397.719 254.113V189.008L434.712 210.313V257.308L397.719 254.113Z" fill="black"/>
<path d="M151.244 167.727C151.244 167.727 188.217 179.18 200.542 221.232V166.887H249.841L237.515 242.63L194.381 246.225L163.57 216.055L163.484 249.256L126.597 252.93V181.917L151.244 167.724V167.727Z" fill="black"/>
<path d="M416.068 147.352C411.62 147.352 407.522 148.832 404.232 151.323C409.965 154.167 413.902 160.065 413.902 166.883C413.902 168.626 413.642 170.308 413.162 171.893C412.915 172.714 412.61 173.506 412.247 174.269C410.575 177.813 407.738 180.7 404.229 182.44C407.519 184.931 411.617 186.411 416.064 186.411C421.725 186.411 426.82 184.012 430.398 180.184C430.764 179.791 431.117 179.381 431.45 178.957C434.078 175.632 435.651 171.439 435.651 166.876C435.651 156.087 426.882 147.342 416.064 147.342L416.068 147.352Z" fill="black"/>
</g>
<defs>
<clipPath id="clip0_168_337">
<rect width="456" height="217" fill="white" transform="translate(28 147)"/>
</clipPath>
</defs>
</svg>
